<?xml version="1.0" encoding="UTF-8" standalone="no"?>
<!-- Created with Inkscape (http://www.inkscape.org/) -->

<svg
   xmlns:dc="http://purl.org/dc/elements/1.1/"
   xmlns:cc="http://creativecommons.org/ns#"
   xmlns:rdf="http://www.w3.org/1999/02/22-rdf-syntax-ns#"
   xmlns:svg="http://www.w3.org/2000/svg"
   xmlns="http://www.w3.org/2000/svg"
   xmlns:sodipodi="http://sodipodi.sourceforge.net/DTD/sodipodi-0.dtd"
   xmlns:inkscape="http://www.inkscape.org/namespaces/inkscape"
   width="139.1875"
   height="423.52911"
   id="svg3839"
   version="1.1"
   inkscape:version="0.48.0 r9654"
   sodipodi:docname="logo.svg">
  <defs
     id="defs3841" />
  <sodipodi:namedview
     id="base"
     pagecolor="#ffffff"
     bordercolor="#666666"
     borderopacity="1.0"
     inkscape:pageopacity="0.0"
     inkscape:pageshadow="2"
     inkscape:zoom="0.98994949"
     inkscape:cx="197.26528"
     inkscape:cy="131.63829"
     inkscape:document-units="px"
     inkscape:current-layer="layer1"
     showgrid="false"
     inkscape:window-width="988"
     inkscape:window-height="742"
     inkscape:window-x="32"
     inkscape:window-y="-4"
     inkscape:window-maximized="1"
     fit-margin-top="0"
     fit-margin-left="0"
     fit-margin-right="0"
     fit-margin-bottom="0" />
  <metadata
     id="metadata3844">
    <rdf:RDF>
      <cc:Work
         rdf:about="">
        <dc:format>image/svg+xml</dc:format>
        <dc:type
           rdf:resource="http://purl.org/dc/dcmitype/StillImage" />
        <dc:title></dc:title>
      </cc:Work>
    </rdf:RDF>
  </metadata>
  <g
     inkscape:label="Layer 1"
     inkscape:groupmode="layer"
     id="layer1"
     transform="translate(-34.5625,-104.57545)">
    <path
       style="fill:#000000;fill-opacity:1;stroke:none"
       d="M 84.3125,148.28125 82.28125,196.75 34.5625,277.5625 l 39.65625,112.125 7.063292,141.44672 c 15.81507,0.99978 29.597658,-3.02967 46.728898,-3.02967 L 126,405.875 l 47.75,-95.96875 -41.6875,-110.125 -2.03125,-48.46875 c -8.74368,0.33628 -25.02156,-45.87643 -32.137005,-46.71733 -7.130539,-0.84269 -9.138953,25.50333 -13.581745,43.68608 z m 29.5625,53.90625 44.71875,115.78125 -44.71875,66.5 0,-33.15625 4.3125,-92.9375 -4.3125,-54.53125 z m -16.9375,2.5625 -7.04061,59.20273 7.29061,83.32852 0,36.6875 -47.5,-98.3125 z"
       id="rect3859"
       inkscape:connector-curvature="0"
       sodipodi:nodetypes="ccccccccccscccccccccccccc" />
  </g>
</svg>
