<?xml version="1.0" encoding="UTF-8" standalone="no"?>
<!-- Created with Inkscape (http://www.inkscape.org/) -->

<svg
   xmlns:dc="http://purl.org/dc/elements/1.1/"
   xmlns:cc="http://creativecommons.org/ns#"
   xmlns:rdf="http://www.w3.org/1999/02/22-rdf-syntax-ns#"
   xmlns:svg="http://www.w3.org/2000/svg"
   xmlns="http://www.w3.org/2000/svg"
   xmlns:sodipodi="http://sodipodi.sourceforge.net/DTD/sodipodi-0.dtd"
   xmlns:inkscape="http://www.inkscape.org/namespaces/inkscape"
   width="245.58496"
   height="246.17583"
   id="svg2"
   version="1.1"
   inkscape:version="0.48.0 r9654"
   sodipodi:docname="upadate.svg">
  <defs
     id="defs4" />
  <sodipodi:namedview
     id="base"
     pagecolor="#ffffff"
     bordercolor="#666666"
     borderopacity="1.0"
     inkscape:pageopacity="0.0"
     inkscape:pageshadow="2"
     inkscape:zoom="0.98994949"
     inkscape:cx="39.381579"
     inkscape:cy="61.257584"
     inkscape:document-units="px"
     inkscape:current-layer="layer1"
     showgrid="false"
     fit-margin-top="0"
     fit-margin-left="0"
     fit-margin-right="0"
     fit-margin-bottom="0"
     inkscape:window-width="988"
     inkscape:window-height="742"
     inkscape:window-x="32"
     inkscape:window-y="-4"
     inkscape:window-maximized="1" />
  <metadata
     id="metadata7">
    <rdf:RDF>
      <cc:Work
         rdf:about="">
        <dc:format>image/svg+xml</dc:format>
        <dc:type
           rdf:resource="http://purl.org/dc/dcmitype/StillImage" />
        <dc:title></dc:title>
      </cc:Work>
    </rdf:RDF>
  </metadata>
  <g
     inkscape:label="Layer 1"
     inkscape:groupmode="layer"
     id="layer1"
     transform="translate(-397.2453,-286.98858)">
    <rect
       style="fill:none;stroke:#000000;stroke-width:3.3186729;stroke-miterlimit:4;stroke-dasharray:none"
       id="rect3000"
       width="242.26628"
       height="242.85715"
       x="398.90463"
       y="288.64792"
       rx="0" />
    <g
       transform="matrix(1.3233083,0,0,1.2870242,17.17535,-161.2026)"
       id="g3793"
       style="fill:#ffffff">
      <path
         style="fill:#ffffff;stroke:none"
         d="M -92.934037,130.26973 C -67.343301,79.005018 -32.636155,60.719118 25.253814,92.894089 l 15.152288,0 L 29.294425,141.38141 4.0406107,113.09714 15.152288,101.98546 c -56.884953,-29.446484 -73.071208,2.80993 -79.802053,29.29443 z"
         id="path3795"
         inkscape:connector-curvature="0"
         transform="translate(411.4285,298.07648)"
         sodipodi:nodetypes="cccccccc" />
      <path
         sodipodi:nodetypes="cccccccc"
         inkscape:connector-curvature="0"
         id="path3797"
         d="m 452.84476,465.87831 c -25.59074,51.26471 -60.29788,69.55061 -118.18785,37.37564 l -15.15229,0 11.11168,-48.48732 25.25381,28.28427 -11.11168,11.11168 c 56.88496,29.44649 73.07121,-2.80993 79.80206,-29.29443 z"
         style="fill:#ffffff;stroke:none" />
    </g>
    <g
       id="g3789"
       transform="matrix(1.3233083,0,0,1.2870242,11.17535,-165.2026)">
      <path
         sodipodi:nodetypes="cccccccc"
         transform="translate(411.4285,298.07648)"
         inkscape:connector-curvature="0"
         id="path3785"
         d="M -92.934037,130.26973 C -67.343301,79.005018 -32.636155,60.719118 25.253814,92.894089 l 15.152288,0 L 29.294425,141.38141 4.0406107,113.09714 15.152288,101.98546 c -56.884953,-29.446484 -73.071208,2.80993 -79.802053,29.29443 z"
         style="fill:#000000;stroke:none" />
      <path
         style="fill:#000000;stroke:none"
         d="m 452.84476,465.87831 c -25.59074,51.26471 -60.29788,69.55061 -118.18785,37.37564 l -15.15229,0 11.11168,-48.48732 25.25381,28.28427 -11.11168,11.11168 c 56.88496,29.44649 73.07121,-2.80993 79.80206,-29.29443 z"
         id="path3787"
         inkscape:connector-curvature="0"
         sodipodi:nodetypes="cccccccc" />
    </g>
  </g>
</svg>
